<?xml version="1.0" standalone="no"?>
<!DOCTYPE svg PUBLIC "-//W3C//DTD SVG 20010904//EN"
 "http://www.w3.org/TR/2001/REC-SVG-20010904/DTD/svg10.dtd">
<svg version="1.0" xmlns="http://www.w3.org/2000/svg"
 width="512.000000pt" height="512.000000pt" viewBox="0 0 512.000000 512.000000"
 preserveAspectRatio="xMidYMid meet">

<g transform="translate(0.000000,512.000000) scale(0.100000,-0.100000)"
fill="#000000" stroke="none">
<path d="M2385 5040 c-750 -59 -1430 -448 -1857 -1061 -219 -315 -367 -687
-423 -1069 -70 -472 10 -990 219 -1425 376 -783 1107 -1303 1976 -1405 123
-15 438 -12 570 4 574 72 1085 325 1486 738 368 379 597 840 679 1368 23 147
30 439 16 596 -108 1146 -982 2067 -2120 2234 -150 22 -407 31 -546 20z m1268
-1432 l57 -83 -16 -59 c-32 -124 -89 -209 -166 -252 -51 -28 -59 -29 -173 -28
-113 0 -188 12 -375 61 -18 4 6 -26 90 -113 65 -68 131 -148 153 -184 139
-239 140 -626 2 -918 -126 -265 -337 -441 -611 -509 -108 -26 -303 -22 -425
10 -251 66 -448 227 -564 462 -235 477 -85 1074 339 1350 132 86 253 134 406
159 151 25 248 28 559 15 345 -14 375 -11 489 46 37 19 90 54 117 79 28 25 53
45 56 46 3 0 31 -37 62 -82z"/>
<path d="M2348 3251 c-214 -70 -360 -263 -414 -547 -22 -120 -15 -363 15 -481
79 -316 243 -514 459 -554 324 -61 562 274 562 791 -1 227 -31 374 -110 535
-58 117 -133 200 -220 243 -73 36 -205 42 -292 13z"/>
</g>
</svg>
