<svg id="svg" version="1.1" xmlns="http://www.w3.org/2000/svg" xmlns:xlink="http://www.w3.org/1999/xlink" width="400" height="400" viewBox="0, 0, 400,400"><g id="svgg"><path id="path0" d="M221.200 25.000 C 221.200 25.330,221.492 25.600,221.849 25.600 C 222.380 25.600,222.408 25.491,222.000 25.000 C 221.726 24.670,221.434 24.400,221.351 24.400 C 221.268 24.400,221.200 24.670,221.200 25.000 M135.867 35.867 C 135.406 36.327,135.575 36.800,136.200 36.800 C 136.530 36.800,136.800 36.530,136.800 36.200 C 136.800 35.575,136.327 35.406,135.867 35.867 M303.200 58.200 C 303.200 58.530,303.492 58.800,303.849 58.800 C 304.380 58.800,304.408 58.691,304.000 58.200 C 303.726 57.870,303.434 57.600,303.351 57.600 C 303.268 57.600,303.200 57.870,303.200 58.200 M91.600 62.600 C 91.192 63.091,91.220 63.200,91.751 63.200 C 92.108 63.200,92.400 62.930,92.400 62.600 C 92.400 62.270,92.332 62.000,92.249 62.000 C 92.166 62.000,91.874 62.270,91.600 62.600 M350.000 107.333 C 350.000 107.627,350.253 107.867,350.562 107.867 C 350.871 107.867,351.032 107.627,350.919 107.333 C 350.807 107.040,350.554 106.800,350.357 106.800 C 350.161 106.800,350.000 107.040,350.000 107.333 M44.800 118.200 C 44.392 118.691,44.420 118.800,44.951 118.800 C 45.308 118.800,45.600 118.530,45.600 118.200 C 45.600 117.870,45.532 117.600,45.449 117.600 C 45.366 117.600,45.074 117.870,44.800 118.200 M177.400 122.814 C 174.320 122.972,171.286 123.306,170.659 123.556 C 170.031 123.807,167.723 124.281,165.530 124.611 C 163.336 124.940,160.999 125.490,160.334 125.834 C 159.670 126.177,157.839 126.726,156.264 127.052 C 154.689 127.379,153.040 127.871,152.600 128.146 C 152.160 128.421,151.006 128.876,150.036 129.158 C 149.066 129.440,147.806 129.992,147.236 130.385 C 145.477 131.598,143.476 132.753,141.700 133.580 C 140.765 134.015,140.000 134.553,140.000 134.776 C 140.000 134.998,139.415 135.479,138.700 135.845 C 137.060 136.686,133.209 139.931,130.585 142.685 C 129.476 143.848,128.351 144.800,128.085 144.800 C 127.818 144.800,127.600 144.978,127.600 145.195 C 127.600 145.412,126.655 146.717,125.499 148.095 C 123.633 150.320,121.789 152.829,120.600 154.762 C 120.380 155.120,119.705 156.057,119.100 156.844 C 118.495 157.631,118.000 158.459,118.000 158.684 C 118.000 158.908,117.666 159.521,117.258 160.046 C 116.850 160.571,116.301 161.661,116.038 162.468 C 115.774 163.275,115.308 164.144,115.001 164.399 C 114.695 164.653,114.141 165.793,113.771 166.931 C 113.400 168.069,112.856 169.277,112.562 169.616 C 112.268 169.955,111.739 171.474,111.387 172.992 C 111.036 174.509,110.570 176.083,110.352 176.490 C 110.135 176.896,109.693 178.857,109.371 180.848 C 109.049 182.839,108.500 185.020,108.150 185.696 C 106.665 188.568,106.643 209.345,108.122 212.800 C 108.451 213.570,108.929 215.640,109.183 217.400 C 109.437 219.160,109.983 221.680,110.395 223.000 C 110.808 224.320,111.259 226.136,111.397 227.036 C 111.535 227.936,111.927 229.196,112.267 229.836 C 112.608 230.476,113.219 231.953,113.627 233.117 C 114.035 234.281,114.736 235.700,115.184 236.271 C 115.633 236.841,116.000 237.646,116.000 238.060 C 116.000 238.903,118.147 242.967,119.247 244.205 C 119.640 244.648,120.244 245.638,120.590 246.405 C 120.935 247.172,121.799 248.551,122.509 249.469 C 123.219 250.388,124.676 252.329,125.746 253.785 C 126.816 255.240,128.166 256.927,128.746 257.534 C 130.788 259.670,135.482 264.461,136.725 265.675 C 138.268 267.184,140.929 269.365,143.346 271.101 C 148.924 275.110,150.706 276.261,153.063 277.379 C 154.198 277.917,155.241 278.542,155.380 278.768 C 155.520 278.994,156.338 279.368,157.199 279.600 C 158.059 279.831,159.293 280.466,159.940 281.011 C 160.586 281.555,161.403 282.000,161.753 282.000 C 162.104 282.000,163.338 282.363,164.496 282.807 C 165.653 283.251,167.768 283.889,169.195 284.224 C 170.622 284.559,172.175 285.084,172.644 285.392 C 173.114 285.700,175.381 286.232,177.682 286.573 C 179.982 286.915,182.480 287.421,183.232 287.697 C 185.532 288.543,209.857 288.396,213.200 287.516 C 214.630 287.140,217.305 286.647,219.143 286.422 C 221.032 286.190,223.034 285.684,223.743 285.259 C 224.435 284.845,226.170 284.286,227.600 284.016 C 229.030 283.746,230.380 283.379,230.600 283.202 C 230.820 283.024,231.810 282.672,232.800 282.420 C 235.221 281.805,236.800 281.167,236.800 280.805 C 236.800 280.641,237.655 280.120,238.700 279.647 C 247.450 275.689,259.523 265.616,264.364 258.235 C 264.714 257.702,265.833 256.036,266.851 254.533 C 267.869 253.030,268.839 251.350,269.006 250.800 C 269.173 250.250,269.645 249.371,270.055 248.846 C 270.465 248.321,270.800 247.582,270.800 247.202 C 270.800 246.822,271.247 245.853,271.794 245.047 C 272.382 244.180,272.956 242.530,273.200 241.002 C 273.427 239.582,273.810 237.921,274.051 237.310 C 276.103 232.119,275.966 213.602,273.819 206.013 C 273.478 204.810,273.200 203.260,273.200 202.569 C 273.200 201.878,272.660 200.301,272.000 199.064 C 271.340 197.827,270.794 196.587,270.787 196.308 C 270.781 196.028,270.241 194.725,269.587 193.410 C 268.934 192.096,268.400 190.813,268.400 190.559 C 268.400 190.305,268.120 189.865,267.777 189.581 C 267.434 189.296,266.913 188.509,266.620 187.832 C 266.326 187.154,265.796 186.240,265.441 185.800 C 264.240 184.307,262.822 182.203,262.435 181.340 C 262.224 180.868,261.721 180.238,261.318 179.940 C 260.916 179.643,260.241 178.860,259.819 178.200 C 259.397 177.540,258.635 176.672,258.126 176.271 C 257.617 175.870,257.200 175.363,257.200 175.144 C 257.200 174.925,256.000 173.633,254.534 172.273 C 253.068 170.913,250.953 168.921,249.834 167.847 C 248.715 166.772,246.585 164.985,245.100 163.874 C 243.615 162.764,242.400 161.712,242.400 161.536 C 242.400 161.360,241.680 160.849,240.800 160.400 C 239.920 159.951,239.200 159.407,239.200 159.192 C 239.200 158.976,238.994 158.800,238.741 158.800 C 238.489 158.800,237.544 158.205,236.641 157.477 C 235.739 156.750,234.135 155.625,233.078 154.977 C 226.380 150.873,225.816 150.388,226.156 149.034 L 226.415 148.000 262.743 148.000 L 299.072 148.000 299.536 146.981 C 300.201 145.522,300.186 123.546,299.520 122.880 C 298.982 122.342,187.799 122.282,177.400 122.814 M206.812 147.865 L 210.547 148.130 213.138 150.565 C 217.984 155.118,224.419 161.914,224.730 162.807 C 224.802 163.012,225.459 163.833,226.190 164.630 C 228.298 166.928,228.715 167.474,229.435 168.879 C 229.807 169.605,230.286 170.313,230.499 170.451 C 230.971 170.755,232.423 173.096,233.818 175.800 C 234.386 176.900,235.369 178.700,236.002 179.800 C 238.055 183.365,239.775 187.603,240.426 190.706 C 240.670 191.864,241.138 193.081,241.466 193.409 C 241.795 193.738,242.402 195.580,242.816 197.503 C 243.230 199.426,243.799 201.810,244.082 202.800 C 244.982 205.950,244.805 234.336,243.867 237.377 C 243.463 238.684,242.971 240.751,242.772 241.971 C 242.574 243.190,242.063 244.660,241.637 245.236 C 241.211 245.812,240.660 247.075,240.414 248.042 C 239.856 250.228,237.416 255.323,236.604 255.997 C 236.272 256.272,236.000 256.724,236.000 257.000 C 236.000 257.276,235.706 257.746,235.346 258.045 C 234.986 258.344,234.237 259.311,233.683 260.194 C 232.440 262.174,226.235 268.257,224.600 269.098 C 223.940 269.438,222.950 270.059,222.400 270.479 C 220.030 272.289,218.176 273.269,216.097 273.810 C 214.875 274.128,213.589 274.631,213.238 274.927 C 211.047 276.777,195.397 278.280,191.080 277.055 C 189.936 276.731,187.740 276.272,186.200 276.037 C 184.660 275.802,182.320 275.161,181.000 274.614 C 179.680 274.067,178.267 273.615,177.860 273.609 C 177.068 273.599,172.420 271.170,170.846 269.944 C 170.321 269.535,169.674 269.200,169.407 269.200 C 169.141 269.200,168.490 268.823,167.961 268.362 C 167.433 267.901,166.550 267.288,166.000 267.000 C 165.450 266.712,164.607 266.054,164.127 265.538 C 163.647 265.022,162.678 264.150,161.974 263.600 C 161.270 263.050,160.493 262.366,160.247 262.081 C 160.001 261.795,159.562 261.345,159.271 261.081 C 158.207 260.113,157.360 259.222,155.517 257.134 C 151.771 252.887,150.902 251.785,150.643 250.953 C 150.498 250.487,150.024 249.784,149.590 249.391 C 149.155 248.998,148.800 248.468,148.800 248.213 C 148.800 247.959,148.477 247.402,148.081 246.975 C 147.299 246.131,144.633 240.810,144.186 239.200 C 144.034 238.650,143.584 237.660,143.188 237.000 C 141.950 234.940,140.095 228.678,139.654 225.073 C 139.422 223.175,138.946 221.070,138.598 220.395 C 136.731 216.785,136.706 190.235,138.567 187.395 C 138.891 186.900,139.422 184.988,139.747 183.147 C 140.346 179.756,143.447 172.514,145.136 170.562 C 145.344 170.322,145.831 169.514,146.217 168.767 C 146.603 168.021,147.387 166.953,147.959 166.394 C 148.532 165.836,149.661 164.663,150.470 163.789 C 153.026 161.026,157.156 157.600,157.933 157.600 C 158.156 157.600,158.847 157.184,159.469 156.675 C 161.317 155.163,164.886 153.338,166.600 153.029 C 167.480 152.871,168.815 152.383,169.567 151.945 C 170.319 151.507,171.935 150.963,173.159 150.737 C 174.383 150.511,175.858 150.080,176.437 149.781 C 179.094 148.407,197.812 147.226,206.812 147.865 M374.400 171.800 C 374.400 172.130,374.664 172.400,374.987 172.400 C 375.345 172.400,375.485 172.165,375.345 171.800 C 375.218 171.470,374.954 171.200,374.757 171.200 C 374.561 171.200,374.400 171.470,374.400 171.800 M374.400 235.049 C 374.400 235.580,374.509 235.608,375.000 235.200 C 375.330 234.926,375.600 234.634,375.600 234.551 C 375.600 234.468,375.330 234.400,375.000 234.400 C 374.670 234.400,374.400 234.692,374.400 235.049 M28.800 250.151 C 28.800 250.234,29.070 250.526,29.400 250.800 C 29.891 251.208,30.000 251.180,30.000 250.649 C 30.000 250.292,29.730 250.000,29.400 250.000 C 29.070 250.000,28.800 250.068,28.800 250.151 M370.000 255.049 C 370.000 255.580,370.109 255.608,370.600 255.200 C 370.930 254.926,371.200 254.634,371.200 254.551 C 371.200 254.468,370.930 254.400,370.600 254.400 C 370.270 254.400,370.000 254.692,370.000 255.049 M350.000 299.449 C 350.000 299.980,350.109 300.008,350.600 299.600 C 350.930 299.326,351.200 299.034,351.200 298.951 C 351.200 298.868,350.930 298.800,350.600 298.800 C 350.270 298.800,350.000 299.092,350.000 299.449 M338.800 315.049 C 338.800 315.580,338.909 315.608,339.400 315.200 C 339.730 314.926,340.000 314.634,340.000 314.551 C 340.000 314.468,339.730 314.400,339.400 314.400 C 339.070 314.400,338.800 314.692,338.800 315.049 M64.000 319.120 C 64.000 319.534,64.866 320.400,65.280 320.400 C 65.456 320.400,65.600 320.040,65.600 319.600 C 65.600 319.067,65.333 318.800,64.800 318.800 C 64.360 318.800,64.000 318.944,64.000 319.120 M330.000 326.249 C 330.000 326.780,330.109 326.808,330.600 326.400 C 330.930 326.126,331.200 325.834,331.200 325.751 C 331.200 325.668,330.930 325.600,330.600 325.600 C 330.270 325.600,330.000 325.892,330.000 326.249 M75.600 330.151 C 75.600 330.234,75.870 330.526,76.200 330.800 C 76.691 331.208,76.800 331.180,76.800 330.649 C 76.800 330.292,76.530 330.000,76.200 330.000 C 75.870 330.000,75.600 330.068,75.600 330.151 M325.600 330.649 C 325.600 331.180,325.709 331.208,326.200 330.800 C 326.530 330.526,326.800 330.234,326.800 330.151 C 326.800 330.068,326.530 330.000,326.200 330.000 C 325.870 330.000,325.600 330.292,325.600 330.649 M314.400 341.849 C 314.400 342.380,314.509 342.408,315.000 342.000 C 315.330 341.726,315.600 341.434,315.600 341.351 C 315.600 341.268,315.330 341.200,315.000 341.200 C 314.670 341.200,314.400 341.492,314.400 341.849 M111.292 359.275 C 111.539 360.017,112.400 360.140,112.400 359.433 C 112.400 359.085,112.115 358.800,111.767 358.800 C 111.418 358.800,111.205 359.014,111.292 359.275 " stroke="none" fill="#f1f3f3" fill-rule="evenodd"></path><path id="path1" d="M179.406 23.746 C 178.956 24.075,178.768 24.540,178.922 24.942 C 179.151 25.538,178.418 25.604,171.087 25.643 C 160.603 25.698,161.424 25.589,161.269 26.946 C 161.144 28.035,161.062 28.080,159.611 27.848 C 156.819 27.402,154.400 27.962,154.400 29.054 C 154.400 29.934,154.246 30.000,152.200 30.000 C 150.028 30.000,150.000 30.015,150.000 31.186 L 150.000 32.373 145.700 32.486 C 141.615 32.594,141.394 32.644,141.275 33.480 C 141.167 34.239,140.863 34.376,139.075 34.480 C 137.143 34.592,136.991 34.676,136.873 35.700 C 136.747 36.800,136.746 36.800,133.273 36.868 C 131.363 36.906,129.530 36.977,129.200 37.026 C 128.870 37.075,128.443 37.134,128.251 37.157 C 128.059 37.181,128.149 37.505,128.451 37.877 C 128.824 38.337,128.840 38.457,128.500 38.253 C 128.225 38.088,128.000 38.121,128.000 38.326 C 128.000 38.532,127.460 38.808,126.800 38.940 C 125.847 39.131,125.600 39.388,125.600 40.190 C 125.600 41.078,125.430 41.200,124.200 41.200 C 123.430 41.200,122.800 41.402,122.800 41.649 C 122.800 41.942,122.564 41.907,122.123 41.549 C 121.738 41.236,121.568 41.203,121.730 41.472 C 121.886 41.732,121.827 42.060,121.600 42.200 C 121.373 42.340,121.291 42.623,121.417 42.828 C 121.544 43.032,120.872 43.227,119.924 43.261 C 118.976 43.294,117.930 43.339,117.600 43.361 C 117.256 43.383,116.946 43.869,116.873 44.500 C 116.754 45.540,115.028 46.015,112.700 45.647 C 112.535 45.621,112.400 46.042,112.400 46.582 C 112.400 47.570,111.614 47.915,108.928 48.105 C 108.448 48.138,108.064 48.264,108.075 48.383 C 108.189 49.642,107.907 50.000,106.800 50.000 C 105.733 50.000,105.600 50.133,105.600 51.200 C 105.600 52.305,105.489 52.400,104.200 52.400 C 103.430 52.400,102.800 52.602,102.800 52.849 C 102.800 53.142,102.564 53.107,102.123 52.749 C 101.663 52.376,101.543 52.360,101.747 52.700 C 101.912 52.975,101.857 53.200,101.624 53.200 C 101.391 53.200,101.245 53.425,101.300 53.700 C 101.357 53.983,100.915 54.256,100.284 54.328 C 99.414 54.428,99.117 54.714,98.934 55.628 C 98.754 56.529,98.480 56.800,97.750 56.800 C 97.003 56.800,96.800 57.014,96.800 57.800 C 96.800 58.665,96.611 58.808,95.400 58.860 C 93.134 58.957,93.014 58.981,92.706 59.400 C 92.544 59.620,92.409 60.565,92.406 61.500 L 92.400 63.200 90.500 63.247 C 89.455 63.273,88.465 63.273,88.300 63.247 C 88.135 63.221,88.000 63.399,88.000 63.643 C 88.000 63.886,87.721 63.978,87.379 63.847 C 87.038 63.716,86.852 63.760,86.965 63.944 C 87.079 64.128,86.834 64.642,86.421 65.085 C 86.008 65.529,85.609 66.314,85.535 66.829 C 85.447 67.444,85.055 67.848,84.400 68.000 C 83.768 68.147,83.353 68.558,83.272 69.116 C 83.180 69.750,82.870 70.000,82.172 70.000 C 81.364 70.000,81.200 70.197,81.200 71.173 C 81.200 72.156,81.021 72.367,80.100 72.473 C 79.323 72.563,78.963 72.857,78.875 73.475 C 78.798 74.021,78.421 74.398,77.875 74.475 C 77.257 74.563,76.963 74.923,76.873 75.700 C 76.767 76.621,76.556 76.800,75.573 76.800 C 74.597 76.800,74.400 76.964,74.400 77.772 C 74.400 78.476,74.151 78.780,73.500 78.872 C 72.861 78.963,72.564 79.313,72.476 80.076 C 72.380 80.907,72.107 81.180,71.276 81.276 C 70.513 81.364,70.163 81.661,70.072 82.300 C 69.992 82.867,69.668 83.200,69.196 83.200 C 68.392 83.200,67.828 83.844,67.811 84.781 C 67.805 85.100,67.350 85.468,66.800 85.597 C 66.079 85.766,65.764 86.140,65.671 86.936 C 65.581 87.710,65.342 88.008,64.871 87.930 C 63.911 87.772,63.200 88.323,63.200 89.224 C 63.200 89.908,62.565 90.215,61.500 90.047 C 61.335 90.021,61.200 90.990,61.200 92.200 C 61.200 94.378,61.188 94.400,60.000 94.400 C 58.933 94.400,58.800 94.533,58.800 95.600 C 58.800 96.613,58.644 96.800,57.800 96.800 C 57.004 96.800,56.800 97.001,56.800 97.786 C 56.800 98.778,55.558 99.825,55.019 99.286 C 54.862 99.129,54.787 99.180,54.852 99.400 C 55.038 100.030,54.002 101.648,53.580 101.388 C 53.371 101.258,53.200 101.354,53.200 101.600 C 53.200 101.851,52.981 101.916,52.700 101.747 C 52.360 101.543,52.376 101.663,52.749 102.123 C 53.107 102.564,53.142 102.800,52.849 102.800 C 52.602 102.800,52.400 103.430,52.400 104.200 C 52.400 105.156,52.210 105.616,51.800 105.650 C 50.012 105.799,50.182 105.520,50.061 108.500 C 50.012 109.704,49.845 110.000,49.214 110.000 C 48.367 110.000,47.409 111.367,47.805 112.008 C 47.938 112.224,47.805 112.400,47.510 112.400 C 46.538 112.400,45.600 114.613,45.600 116.906 C 45.600 119.019,45.568 119.083,44.599 118.898 C 43.740 118.734,43.563 118.883,43.349 119.953 C 43.154 120.929,42.893 121.200,42.150 121.200 C 41.249 121.200,41.200 121.332,41.200 123.757 C 41.200 126.275,40.705 127.139,39.432 126.841 C 39.230 126.794,39.297 127.035,39.581 127.377 C 40.013 127.897,39.991 128.000,39.449 128.000 C 39.031 128.000,38.800 128.341,38.800 128.957 C 38.800 129.643,38.518 129.984,37.800 130.164 C 36.820 130.410,36.431 132.674,36.779 136.100 C 36.845 136.744,36.236 136.992,34.959 136.843 C 34.676 136.810,34.487 137.908,34.435 139.886 C 34.345 143.305,34.373 143.217,33.337 143.367 C 32.738 143.453,32.578 143.896,32.480 145.737 C 32.370 147.807,32.280 148.000,31.427 148.000 C 30.191 148.000,30.012 148.792,30.005 154.300 C 30.000 158.777,29.995 158.800,29.043 158.800 C 28.017 158.800,27.381 160.164,27.845 161.373 C 28.423 162.879,27.606 165.600,26.575 165.600 L 25.600 165.600 25.600 174.350 L 25.600 183.100 24.396 183.341 L 23.193 183.581 23.296 204.491 L 23.400 225.400 24.500 225.527 L 25.600 225.653 25.600 234.427 L 25.600 243.200 26.571 243.200 C 27.572 243.200,28.520 246.834,27.816 247.973 C 27.303 248.804,28.018 250.000,29.027 250.000 C 29.987 250.000,30.000 250.049,30.005 253.700 C 30.013 258.542,30.210 259.263,31.446 258.953 C 32.196 258.764,32.399 258.872,32.394 259.457 C 32.389 260.035,32.310 260.078,32.039 259.649 C 31.847 259.346,31.497 259.216,31.262 259.362 C 30.646 259.742,31.158 260.791,31.833 260.532 C 32.276 260.362,32.400 260.754,32.400 262.324 C 32.400 264.849,32.685 265.600,33.643 265.600 C 34.377 265.600,34.716 268.259,34.498 272.300 C 34.471 272.795,34.618 273.200,34.825 273.200 C 35.031 273.200,35.200 273.470,35.200 273.800 C 35.200 274.130,35.335 274.379,35.500 274.353 C 36.460 274.201,36.800 274.527,36.800 275.600 C 36.800 276.613,36.956 276.800,37.800 276.800 C 38.692 276.800,38.805 276.973,38.850 278.400 C 38.877 279.280,38.923 280.225,38.950 280.500 C 38.977 280.775,39.495 281.057,40.100 281.127 C 41.133 281.245,41.676 283.786,41.247 286.500 C 41.221 286.665,41.391 286.800,41.624 286.800 C 41.857 286.800,41.919 287.008,41.762 287.262 C 41.605 287.516,41.648 287.618,41.857 287.488 C 42.463 287.114,43.167 287.750,43.327 288.817 C 43.434 289.529,43.762 289.834,44.517 289.925 C 45.471 290.039,45.570 290.225,45.680 292.108 C 45.786 293.924,45.917 294.195,46.789 294.399 C 47.551 294.578,47.791 294.907,47.838 295.841 C 47.946 297.995,48.385 298.859,49.232 298.590 C 49.892 298.380,50.009 298.561,50.061 299.873 C 50.094 300.713,50.164 301.580,50.215 301.800 C 50.266 302.020,50.328 302.433,50.354 302.718 C 50.379 303.002,50.625 303.206,50.900 303.170 C 52.092 303.015,52.400 303.268,52.400 304.400 C 52.400 305.413,52.556 305.600,53.400 305.600 C 54.200 305.600,54.400 305.800,54.400 306.600 C 54.400 307.444,54.587 307.600,55.600 307.600 C 56.789 307.600,56.800 307.621,56.800 309.810 C 56.800 311.939,56.843 312.029,57.984 312.257 C 58.636 312.387,59.154 312.608,59.137 312.747 C 58.990 313.923,59.296 314.400,60.200 314.400 C 61.114 314.400,61.200 314.550,61.200 316.151 C 61.200 318.212,61.656 318.673,63.757 318.734 C 65.676 318.791,65.534 318.611,65.648 321.109 C 65.738 323.101,65.795 323.200,66.845 323.200 C 67.750 323.200,67.970 323.397,68.073 324.300 C 68.143 324.905,68.425 325.423,68.700 325.450 C 68.975 325.478,69.491 325.523,69.847 325.550 C 70.293 325.585,70.427 325.853,70.280 326.417 C 70.109 327.070,70.299 327.280,71.233 327.467 C 72.198 327.660,72.400 327.899,72.400 328.850 C 72.400 329.976,72.446 330.000,74.579 330.000 L 76.758 330.000 76.879 332.100 C 76.993 334.077,77.067 334.208,78.139 334.330 C 79.042 334.434,79.236 334.621,79.075 335.236 C 78.858 336.064,80.097 337.035,80.808 336.595 C 81.031 336.457,81.200 336.870,81.200 337.550 C 81.200 338.558,81.373 338.767,82.300 338.873 C 82.922 338.945,83.423 339.261,83.454 339.600 C 83.483 339.930,83.528 340.425,83.554 340.700 C 83.579 340.975,84.030 341.200,84.557 341.200 C 85.243 341.200,85.584 341.482,85.764 342.200 C 85.945 342.921,86.284 343.200,86.981 343.200 C 87.737 343.200,87.974 343.439,88.073 344.300 C 88.191 345.326,88.341 345.408,90.300 345.521 C 92.228 345.632,92.400 345.722,92.400 346.621 C 92.400 347.391,92.607 347.600,93.373 347.600 C 94.138 347.600,94.374 347.836,94.473 348.700 C 94.573 349.564,94.836 349.827,95.700 349.927 C 96.685 350.040,97.015 350.539,96.857 351.672 C 96.836 351.822,97.804 352.068,99.009 352.218 C 100.975 352.464,101.200 352.590,101.200 353.446 C 101.200 354.247,101.400 354.400,102.443 354.400 C 103.318 354.400,103.625 354.559,103.480 354.936 C 103.019 356.137,103.943 356.664,106.692 356.767 C 107.296 356.789,107.666 357.123,107.836 357.800 C 108.065 358.712,108.277 358.800,110.243 358.800 C 112.373 358.800,112.400 358.815,112.400 360.000 C 112.400 360.667,112.613 361.200,112.880 361.200 C 113.238 361.200,113.245 361.315,112.906 361.654 C 112.012 362.548,113.390 363.200,116.171 363.200 C 118.219 363.200,118.811 363.333,118.850 363.800 C 118.878 364.130,118.922 364.625,118.950 364.900 C 118.978 365.175,119.585 365.456,120.300 365.525 C 121.077 365.600,121.600 365.872,121.600 366.202 C 121.600 367.048,122.336 367.330,125.183 367.575 C 127.676 367.789,127.806 367.852,127.927 368.900 C 128.048 369.959,128.140 370.000,130.372 370.000 C 132.592 370.000,132.685 370.041,132.583 370.976 C 132.484 371.874,132.645 371.973,134.616 372.219 C 136.396 372.442,136.776 372.631,136.878 373.343 C 136.993 374.149,137.252 374.207,141.275 374.313 L 145.549 374.427 145.675 375.513 C 145.791 376.523,145.948 376.609,147.900 376.721 C 149.055 376.787,150.023 377.012,150.050 377.221 C 150.078 377.429,150.123 377.825,150.150 378.100 C 150.187 378.473,151.902 378.628,156.918 378.710 C 161.197 378.780,163.547 378.962,163.392 379.213 C 162.547 380.580,163.619 381.200,166.827 381.200 C 170.045 381.200,170.295 381.332,170.047 382.900 C 170.021 383.065,172.070 383.200,174.600 383.200 C 177.571 383.200,179.200 383.350,179.200 383.624 C 179.200 383.857,179.411 383.917,179.668 383.758 C 179.980 383.565,180.053 383.684,179.888 384.114 C 179.706 384.589,179.811 384.694,180.286 384.512 C 180.666 384.366,180.829 384.429,180.683 384.665 C 180.290 385.302,180.455 385.309,199.800 385.475 C 220.006 385.649,220.686 385.611,220.874 384.287 C 220.996 383.430,221.193 383.393,226.600 383.200 C 232.007 383.007,232.204 382.970,232.326 382.113 C 232.446 381.269,232.658 381.221,236.726 381.113 L 241.000 381.000 241.127 379.900 L 241.253 378.800 245.727 378.757 C 251.922 378.699,251.800 378.718,251.800 377.800 C 251.800 377.127,252.138 376.966,253.923 376.787 C 255.958 376.582,256.780 376.042,256.794 374.900 C 256.798 374.534,257.856 374.400,260.732 374.400 C 264.497 374.400,264.687 374.358,265.190 373.419 C 265.625 372.605,266.063 372.418,267.757 372.319 C 269.654 372.209,269.809 372.121,269.927 371.100 C 270.033 370.179,270.244 370.000,271.227 370.000 C 272.264 370.000,272.400 369.861,272.400 368.800 L 272.400 367.600 275.600 367.600 C 278.747 367.600,278.800 367.583,278.800 366.600 C 278.800 365.703,278.962 365.600,280.367 365.600 C 282.547 365.600,283.200 365.267,283.200 364.157 C 283.200 363.264,283.346 363.200,285.400 363.200 C 287.480 363.200,287.600 363.145,287.600 362.200 C 287.600 361.356,287.787 361.200,288.800 361.200 C 289.867 361.200,290.000 361.067,290.000 360.000 C 290.000 358.842,290.063 358.800,291.829 358.800 C 293.363 358.800,293.634 358.687,293.506 358.100 C 293.421 357.715,293.138 357.445,292.876 357.500 C 292.614 357.555,292.400 357.420,292.400 357.200 C 292.400 356.658,292.936 356.696,293.520 357.280 C 293.893 357.653,294.000 357.653,294.000 357.280 C 294.000 357.013,294.578 356.782,295.300 356.760 C 297.158 356.703,298.592 356.242,298.650 355.682 C 298.678 355.417,298.723 355.032,298.750 354.827 C 298.778 354.621,299.295 354.396,299.900 354.327 C 300.688 354.236,301.036 353.944,301.128 353.300 C 301.220 352.649,301.524 352.400,302.228 352.400 C 303.041 352.400,303.200 352.204,303.200 351.200 C 303.200 350.012,303.222 350.000,305.400 350.000 L 307.600 350.000 307.600 348.613 C 307.600 347.483,307.724 347.273,308.266 347.481 C 308.713 347.652,308.836 347.583,308.642 347.268 C 308.483 347.011,308.543 346.800,308.776 346.800 C 309.009 346.800,309.200 346.991,309.200 347.224 C 309.200 347.457,309.385 347.533,309.611 347.393 C 309.836 347.254,309.971 346.846,309.911 346.488 C 309.827 345.993,310.279 345.754,311.792 345.493 C 314.077 345.100,314.385 344.769,314.394 342.700 C 314.400 341.223,314.424 341.200,315.967 341.200 C 318.500 341.200,318.800 340.946,318.800 338.808 L 318.800 336.902 320.500 336.590 C 321.435 336.419,322.335 336.261,322.500 336.239 C 322.665 336.218,322.755 336.020,322.700 335.800 C 322.645 335.580,322.452 335.449,322.270 335.510 C 322.089 335.570,322.045 335.451,322.173 335.244 C 322.300 335.037,322.179 334.761,321.902 334.630 C 321.626 334.498,321.805 334.466,322.300 334.558 C 323.065 334.700,323.200 334.551,323.200 333.563 C 323.200 332.923,323.425 332.379,323.700 332.354 C 323.975 332.328,324.470 332.283,324.800 332.254 C 325.139 332.223,325.455 331.722,325.527 331.100 C 325.637 330.138,325.826 330.000,327.027 330.000 C 327.782 330.000,328.400 329.826,328.400 329.613 C 328.400 329.399,328.701 329.341,329.069 329.482 C 329.577 329.677,329.677 329.577,329.482 329.069 C 329.341 328.701,329.399 328.400,329.613 328.400 C 329.826 328.400,330.000 327.770,330.000 327.000 C 330.000 325.676,330.074 325.600,331.351 325.600 C 332.094 325.600,332.924 325.332,333.196 325.004 C 333.468 324.677,333.820 324.489,333.979 324.587 C 334.137 324.685,334.267 324.502,334.267 324.181 C 334.267 323.676,334.177 323.678,333.602 324.198 C 332.705 325.010,331.911 324.959,332.074 324.100 C 332.154 323.678,332.642 323.350,333.303 323.273 C 334.154 323.175,334.400 322.935,334.400 322.200 C 334.400 321.464,334.645 321.225,335.500 321.127 C 336.364 321.027,336.627 320.764,336.727 319.900 C 336.826 319.036,337.062 318.800,337.827 318.800 C 338.740 318.800,338.800 318.664,338.800 316.600 L 338.800 314.400 340.913 314.400 C 342.929 314.400,343.030 314.350,343.116 313.300 C 343.166 312.695,343.385 312.140,343.603 312.067 C 343.822 311.993,344.000 311.659,344.000 311.324 C 344.000 310.956,344.230 310.803,344.580 310.937 C 344.953 311.080,345.085 310.967,344.952 310.620 C 344.839 310.324,344.938 309.962,345.173 309.817 C 345.408 309.672,345.600 309.113,345.600 308.576 C 345.600 307.802,345.806 307.600,346.600 307.600 C 347.400 307.600,347.600 307.400,347.600 306.600 C 347.600 305.708,347.974 305.406,348.900 305.553 C 349.065 305.579,349.200 305.409,349.200 305.176 C 349.200 304.943,349.392 304.871,349.627 305.017 C 349.861 305.162,350.020 305.037,349.979 304.740 C 349.939 304.443,349.927 302.985,349.953 301.500 L 350.000 298.800 351.324 298.800 C 353.528 298.800,354.134 298.048,354.323 295.071 C 354.482 292.580,354.545 292.438,355.545 292.322 C 356.361 292.228,356.629 291.951,356.727 291.100 C 356.841 290.107,357.359 289.772,358.500 289.953 C 358.785 289.998,359.016 286.049,358.844 284.082 C 358.776 283.301,358.930 283.182,359.882 283.282 C 360.834 283.382,361.018 283.240,361.124 282.325 C 361.211 281.572,361.511 281.212,362.124 281.125 C 362.873 281.018,363.029 280.684,363.200 278.816 C 363.376 276.889,363.518 276.604,364.400 276.399 C 365.347 276.179,365.406 276.001,365.517 273.083 C 365.630 270.107,365.668 270.000,366.617 270.000 C 367.542 270.000,367.600 269.870,367.600 267.800 C 367.600 266.310,367.761 265.598,368.100 265.594 C 369.778 265.573,369.915 265.052,369.968 258.527 L 370.000 254.453 371.100 254.327 C 372.126 254.209,372.208 254.059,372.321 252.100 C 372.387 250.945,372.600 250.000,372.792 250.000 C 374.169 250.000,374.400 248.786,374.400 241.571 L 374.400 234.400 375.600 234.400 L 376.800 234.400 376.800 230.000 L 376.800 225.600 377.800 225.600 L 378.800 225.600 378.800 204.608 L 378.800 183.615 377.800 183.364 L 376.800 183.113 376.800 177.757 L 376.800 172.400 375.609 172.400 L 374.417 172.400 374.309 164.700 C 374.201 157.057,374.193 156.999,373.300 156.872 C 372.552 156.766,372.392 156.480,372.350 155.172 C 372.322 154.307,372.278 153.375,372.250 153.100 C 372.223 152.825,371.705 152.543,371.100 152.473 L 370.000 152.347 370.000 148.000 C 370.000 143.569,369.524 142.458,368.024 143.385 C 367.801 143.523,367.590 142.655,367.520 141.311 C 367.424 139.464,367.265 138.999,366.728 138.995 C 365.693 138.987,365.640 138.807,365.566 135.076 C 365.528 133.155,365.338 131.485,365.142 131.364 C 364.947 131.244,364.908 130.949,365.055 130.711 C 365.215 130.451,365.137 130.391,364.862 130.562 C 364.608 130.719,364.400 130.637,364.400 130.381 C 364.400 130.124,364.130 130.018,363.800 130.145 C 363.353 130.316,363.200 130.083,363.200 129.231 C 363.200 128.351,362.974 128.030,362.222 127.841 C 361.381 127.630,361.227 127.330,361.122 125.698 C 361.010 123.960,360.907 123.789,359.900 123.673 C 358.838 123.551,358.800 123.465,358.800 121.173 C 358.800 119.868,358.665 118.821,358.500 118.847 C 357.106 119.067,356.839 118.745,356.721 116.700 C 356.608 114.741,356.526 114.591,355.500 114.473 C 354.497 114.358,354.399 114.200,354.394 112.673 C 354.388 111.058,353.985 109.895,353.455 109.966 C 352.635 110.076,352.441 109.892,352.327 108.900 C 352.218 107.959,352.041 107.819,351.100 107.929 C 350.051 108.051,349.566 106.349,349.953 103.900 C 349.979 103.735,349.809 103.600,349.576 103.600 C 349.343 103.600,349.269 103.412,349.411 103.182 C 349.778 102.588,348.852 101.605,348.171 101.867 C 347.857 101.987,347.600 101.886,347.600 101.643 C 347.600 101.399,347.150 101.200,346.600 101.200 C 345.741 101.200,345.598 101.016,345.586 99.900 C 345.569 98.349,344.831 97.000,344.000 97.000 C 343.615 97.000,343.355 96.533,343.275 95.700 C 343.172 94.635,342.978 94.400,342.202 94.400 C 341.525 94.400,341.219 94.144,341.128 93.500 C 341.036 92.856,340.688 92.564,339.900 92.473 C 338.850 92.353,338.800 92.247,338.800 90.173 C 338.800 88.314,338.692 88.000,338.049 88.000 C 337.636 88.000,337.074 87.730,336.800 87.400 C 336.526 87.070,336.436 86.800,336.600 86.800 C 336.764 86.800,336.674 86.530,336.400 86.200 C 336.126 85.870,335.564 85.600,335.151 85.600 C 334.617 85.600,334.400 85.312,334.400 84.600 C 334.400 83.655,334.057 83.420,332.900 83.570 C 332.625 83.606,332.378 83.357,332.350 83.018 C 332.322 82.678,332.278 82.175,332.250 81.900 C 332.223 81.625,331.705 81.343,331.100 81.273 C 330.251 81.176,330.000 80.934,330.000 80.216 C 330.000 79.216,329.172 78.682,328.200 79.055 C 327.746 79.230,327.600 78.983,327.600 78.043 C 327.600 76.984,327.452 76.800,326.600 76.800 C 325.797 76.800,325.600 76.601,325.600 75.790 C 325.600 74.988,325.353 74.731,324.400 74.540 C 323.471 74.354,323.200 74.086,323.200 73.350 C 323.200 72.610,322.985 72.400,322.227 72.400 C 321.462 72.400,321.226 72.164,321.127 71.300 C 321.027 70.436,320.764 70.173,319.900 70.073 C 319.052 69.976,318.800 69.734,318.800 69.017 C 318.800 68.365,318.509 68.014,317.828 67.843 C 317.221 67.690,316.807 67.260,316.728 66.699 C 316.636 66.056,316.287 65.764,315.500 65.673 C 314.636 65.574,314.400 65.338,314.400 64.573 C 314.400 64.038,314.265 63.581,314.100 63.557 C 313.774 63.511,311.823 63.335,310.700 63.252 C 310.234 63.217,310.000 62.866,310.000 62.200 C 310.000 61.361,309.812 61.200,308.827 61.200 C 307.844 61.200,307.633 61.021,307.527 60.100 C 307.409 59.074,307.259 58.992,305.300 58.879 L 303.200 58.758 303.200 57.059 C 303.200 55.236,302.672 54.400,301.520 54.400 C 300.865 54.400,300.610 53.951,300.763 53.070 C 300.794 52.889,300.651 52.845,300.444 52.973 C 300.237 53.100,299.981 52.979,299.875 52.702 C 299.769 52.426,299.701 52.593,299.724 53.072 C 299.747 53.552,299.937 53.839,300.145 53.710 C 300.353 53.582,300.395 53.684,300.238 53.938 C 299.787 54.668,298.870 54.478,298.374 53.552 C 298.055 52.956,298.051 52.784,298.360 52.975 C 298.602 53.125,298.800 53.057,298.800 52.824 C 298.800 52.577,297.882 52.400,296.600 52.400 C 294.422 52.400,294.400 52.388,294.400 51.200 C 294.400 50.187,294.244 50.000,293.400 50.000 C 292.850 50.000,292.377 49.820,292.350 49.600 C 292.322 49.380,292.278 49.035,292.250 48.833 C 292.151 48.108,291.619 47.918,289.626 47.894 C 287.673 47.871,287.600 47.830,287.600 46.735 C 287.600 45.791,287.432 45.600,286.600 45.600 C 285.694 45.600,285.384 45.114,285.540 43.938 C 285.559 43.794,285.310 43.574,284.987 43.450 C 284.664 43.327,284.400 43.406,284.400 43.627 C 284.400 43.892,284.151 43.895,283.669 43.637 C 283.267 43.422,282.016 43.204,280.889 43.152 C 279.762 43.101,278.921 42.928,279.020 42.767 C 279.120 42.606,279.606 42.550,280.100 42.642 C 280.595 42.734,280.774 42.702,280.498 42.570 C 280.221 42.439,280.095 42.169,280.218 41.970 C 280.341 41.772,280.162 41.716,279.821 41.847 C 279.479 41.978,279.200 41.886,279.200 41.643 C 279.200 41.399,278.660 41.200,278.000 41.200 C 277.079 41.200,276.800 41.020,276.800 40.424 C 276.800 39.273,276.219 38.979,273.708 38.861 C 272.687 38.813,272.362 38.590,272.164 37.800 C 271.923 36.840,271.788 36.800,268.783 36.800 C 265.666 36.800,265.653 36.796,265.527 35.700 C 265.409 34.677,265.256 34.592,263.338 34.480 C 261.530 34.376,261.247 34.240,261.031 33.380 C 260.789 32.418,260.706 32.400,256.624 32.400 L 252.464 32.400 252.202 31.210 C 252.058 30.555,251.819 30.037,251.670 30.057 C 248.713 30.467,245.600 29.925,245.600 29.000 C 245.600 27.891,244.961 27.749,240.930 27.957 C 238.925 28.060,238.855 28.028,238.730 26.932 C 238.638 26.128,238.368 25.788,237.800 25.759 C 237.360 25.737,233.457 25.692,229.127 25.659 L 221.253 25.600 221.127 24.500 L 221.000 23.400 200.571 23.304 C 183.972 23.226,180.004 23.309,179.406 23.746 M299.726 120.449 C 300.207 120.696,301.012 121.362,301.516 121.930 L 302.432 122.962 302.316 135.316 L 302.200 147.670 301.078 148.635 L 299.955 149.600 264.601 149.600 C 241.463 149.600,229.162 149.738,229.000 150.000 C 228.864 150.220,228.937 150.400,229.162 150.400 C 229.388 150.400,230.187 150.940,230.939 151.600 C 231.691 152.260,232.435 152.800,232.593 152.800 C 233.070 152.800,238.000 156.089,238.000 156.407 C 238.000 156.570,238.547 156.929,239.215 157.206 C 239.884 157.483,240.610 158.045,240.829 158.455 C 241.049 158.865,241.482 159.200,241.791 159.200 C 242.101 159.200,243.606 160.280,245.136 161.600 C 246.666 162.920,248.045 164.000,248.200 164.000 C 248.355 164.000,249.907 165.440,251.648 167.200 C 253.389 168.960,255.000 170.400,255.228 170.400 C 255.455 170.400,255.830 170.940,256.060 171.600 C 256.290 172.260,256.686 172.800,256.939 172.800 C 257.477 172.801,260.400 175.721,260.400 176.258 C 260.400 176.458,260.895 177.091,261.500 177.665 C 263.070 179.155,266.474 183.886,267.208 185.600 C 267.443 186.150,267.870 186.780,268.156 187.000 C 268.847 187.532,271.423 192.970,271.971 195.053 C 272.210 195.963,272.665 196.922,272.981 197.184 C 273.298 197.447,273.775 198.683,274.043 199.931 C 274.311 201.179,274.766 202.479,275.055 202.821 C 275.718 203.604,276.377 208.085,276.406 212.000 C 276.419 213.650,276.689 216.080,277.008 217.400 C 277.742 220.440,277.736 224.319,276.992 227.400 C 276.673 228.720,276.408 231.060,276.403 232.600 C 276.392 236.090,275.744 240.197,275.027 241.336 C 274.727 241.811,274.194 243.215,273.843 244.457 C 273.491 245.698,272.932 246.817,272.601 246.944 C 272.271 247.071,271.991 247.586,271.981 248.087 C 271.970 248.589,271.620 249.630,271.203 250.400 C 270.786 251.170,269.995 252.745,269.445 253.900 C 268.894 255.055,268.276 256.000,268.071 256.000 C 267.865 256.000,267.472 256.544,267.196 257.209 C 266.921 257.875,266.487 258.550,266.232 258.709 C 265.977 258.869,265.415 259.568,264.984 260.262 C 262.975 263.497,253.878 272.580,251.263 273.962 C 250.678 274.271,249.965 274.856,249.677 275.262 C 249.390 275.668,248.920 276.000,248.634 276.000 C 248.347 276.000,247.322 276.628,246.356 277.396 C 245.390 278.164,244.448 278.794,244.263 278.796 C 244.078 278.798,243.494 279.140,242.967 279.555 C 242.439 279.970,241.337 280.435,240.518 280.589 C 239.698 280.743,238.629 281.299,238.142 281.825 C 237.625 282.383,236.577 282.890,235.628 283.042 C 234.732 283.185,234.000 283.437,234.000 283.603 C 234.000 284.016,232.255 284.680,229.400 285.352 C 228.080 285.663,226.370 286.183,225.600 286.507 C 224.830 286.831,222.969 287.216,221.464 287.363 C 219.711 287.534,218.345 287.912,217.664 288.416 C 214.741 290.577,178.975 290.421,177.380 288.241 C 177.101 287.859,175.918 287.536,174.169 287.365 C 172.646 287.215,170.732 286.777,169.915 286.390 C 169.098 286.003,167.478 285.474,166.315 285.213 C 163.580 284.601,162.000 283.992,162.000 283.551 C 162.000 283.358,161.662 283.200,161.249 283.200 C 160.100 283.200,157.724 282.101,157.476 281.455 C 157.355 281.138,156.528 280.757,155.640 280.607 C 154.751 280.457,153.585 279.989,153.049 279.567 C 152.513 279.145,151.922 278.798,151.737 278.796 C 151.552 278.794,150.634 278.183,149.698 277.439 C 148.762 276.695,147.547 275.973,146.998 275.835 C 146.449 275.697,146.000 275.413,146.000 275.203 C 146.000 274.992,145.415 274.521,144.700 274.154 C 143.985 273.787,142.860 273.050,142.200 272.515 C 141.540 271.981,140.409 271.061,139.687 270.472 C 138.965 269.882,136.942 268.025,135.190 266.344 C 133.438 264.663,131.730 263.182,131.394 263.053 C 131.057 262.924,130.664 262.499,130.521 262.109 C 130.253 261.383,129.510 260.516,126.660 257.611 C 124.910 255.826,124.462 255.287,123.996 254.400 C 123.436 253.335,121.459 250.728,120.300 249.526 C 119.915 249.127,119.600 248.555,119.600 248.255 C 119.600 247.955,119.060 247.031,118.400 246.200 C 117.740 245.369,117.200 244.387,117.200 244.017 C 117.200 243.647,116.755 242.957,116.211 242.484 C 115.666 242.011,115.096 241.123,114.944 240.512 C 114.791 239.900,114.247 238.608,113.733 237.640 C 113.220 236.673,112.800 235.467,112.800 234.961 C 112.800 234.455,112.364 233.571,111.831 232.996 C 111.298 232.420,110.736 231.196,110.583 230.275 C 110.430 229.354,109.984 227.969,109.593 227.197 C 109.202 226.425,108.676 224.085,108.424 221.997 C 108.172 219.909,107.611 217.463,107.177 216.562 C 105.073 212.192,105.424 183.550,107.601 182.000 C 107.755 181.890,108.098 180.090,108.362 178.000 C 108.627 175.910,109.092 173.700,109.396 173.089 C 109.701 172.478,110.227 171.025,110.565 169.859 C 110.904 168.694,111.546 167.411,111.991 167.008 C 112.436 166.606,112.801 165.899,112.802 165.438 C 112.803 164.977,113.248 163.880,113.790 163.000 C 114.332 162.120,114.781 161.171,114.788 160.890 C 114.802 160.302,117.147 156.631,118.363 155.291 C 118.818 154.791,119.302 153.932,119.440 153.382 C 119.578 152.832,120.211 151.891,120.846 151.292 C 121.481 150.693,122.000 149.981,122.000 149.711 C 122.000 149.440,122.450 148.924,123.000 148.563 C 123.550 148.203,124.000 147.663,124.000 147.363 C 124.000 147.064,124.431 146.536,124.958 146.191 C 125.485 145.845,126.012 145.198,126.129 144.752 C 126.245 144.306,126.714 143.843,127.170 143.724 C 127.627 143.604,128.000 143.333,128.000 143.122 C 128.000 142.609,131.426 139.200,131.941 139.200 C 132.164 139.200,132.460 138.840,132.600 138.400 C 132.740 137.960,132.987 137.600,133.150 137.600 C 133.312 137.600,134.865 136.520,136.600 135.200 C 138.335 133.880,139.893 132.800,140.062 132.800 C 140.231 132.800,140.700 132.445,141.104 132.011 C 141.509 131.576,142.555 130.969,143.428 130.661 C 144.302 130.352,145.713 129.628,146.564 129.050 C 147.415 128.473,148.274 128.000,148.472 128.000 C 148.670 128.000,149.320 127.659,149.916 127.242 C 150.512 126.826,152.154 126.271,153.564 126.010 C 154.974 125.748,156.548 125.259,157.061 124.923 C 157.574 124.587,159.445 124.150,161.218 123.951 C 162.992 123.753,164.889 123.298,165.435 122.940 C 166.358 122.335,172.952 121.461,184.400 120.425 C 190.150 119.905,298.711 119.927,299.726 120.449 M35.169 134.967 C 34.927 135.230,34.956 136.449,35.208 136.605 C 35.554 136.819,36.126 136.135,36.244 135.367 C 36.292 135.047,35.401 134.715,35.169 134.967 M185.000 149.984 C 183.240 150.127,181.170 150.454,180.400 150.711 C 179.630 150.968,177.505 151.435,175.678 151.747 C 173.851 152.060,172.028 152.613,171.627 152.975 C 171.227 153.338,170.202 153.740,169.350 153.869 C 168.497 153.998,167.231 154.445,166.534 154.863 C 165.838 155.281,164.359 155.893,163.248 156.223 C 162.136 156.553,161.086 157.063,160.913 157.357 C 160.741 157.651,160.060 158.194,159.400 158.563 C 155.487 160.751,149.368 166.695,147.200 170.411 C 146.071 172.346,145.000 174.091,144.081 175.491 C 143.575 176.262,143.003 177.726,142.810 178.746 C 142.384 180.985,141.781 182.641,141.277 182.952 C 141.073 183.079,140.779 184.491,140.625 186.091 C 140.441 187.994,140.043 189.484,139.472 190.400 C 138.133 192.549,138.128 212.589,139.466 216.024 C 139.942 217.247,140.461 219.767,140.618 221.624 C 140.780 223.520,141.218 225.621,141.619 226.418 C 142.011 227.197,142.547 229.307,142.810 231.105 C 143.073 232.904,143.529 234.575,143.822 234.819 C 144.116 235.062,144.658 236.169,145.026 237.279 C 145.395 238.388,146.010 239.610,146.393 239.993 C 146.777 240.377,147.220 241.381,147.378 242.225 C 147.537 243.070,147.920 243.949,148.230 244.180 C 148.540 244.411,149.200 245.359,149.697 246.286 C 151.166 249.030,154.461 253.624,156.501 255.774 C 157.547 256.876,158.504 258.098,158.628 258.489 C 158.752 258.880,159.023 259.200,159.231 259.200 C 159.438 259.200,160.129 259.695,160.767 260.300 C 161.840 261.318,163.331 262.596,166.535 265.246 C 167.231 265.821,168.205 266.418,168.700 266.573 C 169.195 266.727,169.600 267.006,169.600 267.191 C 169.600 267.377,170.394 267.913,171.364 268.383 C 172.335 268.852,173.225 269.489,173.343 269.796 C 173.461 270.104,174.242 270.478,175.079 270.627 C 175.916 270.776,177.153 271.231,177.830 271.638 C 178.506 272.045,180.036 272.581,181.230 272.829 C 182.423 273.077,183.850 273.570,184.400 273.924 C 187.533 275.944,207.633 275.946,210.800 273.927 C 211.350 273.577,212.790 273.064,214.000 272.787 C 215.210 272.510,216.613 271.962,217.119 271.569 C 217.624 271.177,218.599 270.732,219.286 270.581 C 221.113 270.180,225.927 266.100,231.809 259.967 C 232.354 259.398,232.800 258.755,232.800 258.536 C 232.800 258.318,233.250 257.717,233.800 257.200 C 234.350 256.683,234.805 256.067,234.811 255.830 C 234.817 255.594,235.357 254.693,236.011 253.829 C 236.665 252.965,237.200 251.865,237.200 251.385 C 237.200 250.904,237.641 249.862,238.180 249.068 C 238.718 248.274,239.279 246.988,239.425 246.209 C 239.571 245.430,240.057 244.327,240.505 243.757 C 241.127 242.966,241.450 241.569,241.867 237.860 C 242.168 235.187,242.681 231.546,243.007 229.769 C 243.892 224.948,243.798 213.999,242.822 208.101 C 242.394 205.516,241.876 201.815,241.670 199.879 C 241.407 197.417,241.099 196.213,240.644 195.879 C 240.266 195.601,239.805 194.308,239.545 192.800 C 239.289 191.313,238.790 189.906,238.380 189.513 C 237.985 189.136,237.452 187.815,237.196 186.579 C 236.939 185.342,236.295 183.691,235.764 182.910 C 235.234 182.128,234.800 181.271,234.800 181.006 C 234.800 180.741,234.468 180.223,234.061 179.856 C 233.655 179.488,233.105 178.460,232.839 177.572 C 232.573 176.684,232.121 175.868,231.835 175.758 C 231.548 175.648,231.079 174.846,230.792 173.976 C 230.505 173.105,229.579 171.667,228.734 170.779 C 227.889 169.891,226.816 168.416,226.349 167.501 C 225.882 166.586,225.073 165.501,224.550 165.089 C 224.028 164.678,223.600 164.184,223.600 163.990 C 223.600 163.796,222.700 162.738,221.600 161.638 C 220.500 160.538,219.600 159.541,219.600 159.422 C 219.600 159.248,216.583 156.218,213.516 153.311 C 213.232 153.042,212.758 152.592,212.462 152.311 C 212.167 152.030,211.452 151.305,210.873 150.700 L 209.822 149.600 199.011 149.662 C 193.065 149.696,186.760 149.841,185.000 149.984 M359.439 283.937 C 359.054 284.560,359.785 285.128,360.282 284.592 C 360.661 284.184,360.642 284.025,360.195 283.853 C 359.882 283.733,359.542 283.771,359.439 283.937 " stroke="none" fill="#0c9bd3" fill-rule="evenodd"></path><path id="path2" d="M239.505 27.883 C 240.002 27.979,240.722 27.975,241.105 27.875 C 241.487 27.775,241.080 27.696,240.200 27.701 C 239.320 27.705,239.007 27.787,239.505 27.883 M128.430 37.364 C 128.071 37.797,128.074 37.998,128.442 38.226 C 128.749 38.416,128.819 38.355,128.636 38.058 C 128.463 37.779,128.717 37.445,129.274 37.222 C 129.884 36.978,129.978 36.842,129.549 36.825 C 129.191 36.811,128.687 37.054,128.430 37.364 M120.962 42.200 C 119.828 43.175,119.822 43.199,120.724 43.200 C 121.232 43.200,121.549 43.040,121.428 42.845 C 121.156 42.405,122.175 41.508,122.537 41.870 C 122.682 42.015,122.800 41.923,122.800 41.667 C 122.800 40.944,122.231 41.109,120.962 42.200 M298.800 52.824 C 298.800 53.057,298.602 53.125,298.360 52.975 C 298.051 52.784,298.055 52.956,298.374 53.552 C 298.906 54.546,299.700 54.643,300.400 53.800 C 300.855 53.252,300.683 53.029,299.900 53.153 C 299.735 53.179,299.600 53.020,299.600 52.800 C 299.600 52.580,299.420 52.400,299.200 52.400 C 298.980 52.400,298.800 52.591,298.800 52.824 M86.621 64.135 C 86.219 64.429,85.960 64.834,86.045 65.035 C 86.130 65.236,86.599 64.995,87.086 64.500 C 88.059 63.511,87.777 63.290,86.621 64.135 M46.200 112.800 C 46.336 113.020,46.257 113.200,46.024 113.200 C 45.791 113.200,45.600 113.504,45.600 113.876 C 45.600 114.466,45.675 114.454,46.187 113.776 C 46.890 112.848,46.951 112.400,46.376 112.400 C 46.143 112.400,46.064 112.580,46.200 112.800 M184.400 120.425 C 172.952 121.461,166.358 122.335,165.435 122.940 C 164.889 123.298,162.992 123.753,161.218 123.951 C 159.445 124.150,157.574 124.587,157.061 124.923 C 156.548 125.259,154.974 125.748,153.564 126.010 C 152.154 126.271,150.512 126.826,149.916 127.242 C 149.320 127.659,148.670 128.000,148.472 128.000 C 148.274 128.000,147.415 128.473,146.564 129.050 C 145.713 129.628,144.302 130.352,143.428 130.661 C 142.555 130.969,141.509 131.576,141.104 132.011 C 140.700 132.445,140.231 132.800,140.062 132.800 C 139.893 132.800,138.335 133.880,136.600 135.200 C 134.865 136.520,133.312 137.600,133.150 137.600 C 132.987 137.600,132.740 137.960,132.600 138.400 C 132.460 138.840,132.164 139.200,131.941 139.200 C 131.426 139.200,128.000 142.609,128.000 143.122 C 128.000 143.333,127.627 143.604,127.170 143.724 C 126.714 143.843,126.245 144.306,126.129 144.752 C 126.012 145.198,125.485 145.845,124.958 146.191 C 124.431 146.536,124.000 147.064,124.000 147.363 C 124.000 147.663,123.550 148.203,123.000 148.563 C 122.450 148.924,122.000 149.440,122.000 149.711 C 122.000 149.981,121.481 150.693,120.846 151.292 C 120.211 151.891,119.578 152.832,119.440 153.382 C 119.302 153.932,118.818 154.791,118.363 155.291 C 117.147 156.631,114.802 160.302,114.788 160.890 C 114.781 161.171,114.332 162.120,113.790 163.000 C 113.248 163.880,112.803 164.977,112.802 165.438 C 112.801 165.899,112.436 166.606,111.991 167.008 C 111.546 167.411,110.904 168.694,110.565 169.859 C 110.227 171.025,109.701 172.478,109.396 173.089 C 109.092 173.700,108.627 175.910,108.362 178.000 C 108.098 180.090,107.755 181.890,107.601 182.000 C 105.424 183.550,105.073 212.192,107.177 216.562 C 107.611 217.463,108.172 219.909,108.424 221.997 C 108.676 224.085,109.202 226.425,109.593 227.197 C 109.984 227.969,110.430 229.354,110.583 230.275 C 110.736 231.196,111.298 232.420,111.831 232.996 C 112.364 233.571,112.800 234.455,112.800 234.961 C 112.800 235.467,113.220 236.673,113.733 237.640 C 114.247 238.608,114.791 239.900,114.944 240.512 C 115.096 241.123,115.666 242.011,116.211 242.484 C 116.755 242.957,117.200 243.647,117.200 244.017 C 117.200 244.387,117.740 245.369,118.400 246.200 C 119.060 247.031,119.600 247.955,119.600 248.255 C 119.600 248.555,119.915 249.127,120.300 249.526 C 121.459 250.728,123.436 253.335,123.996 254.400 C 124.462 255.287,124.910 255.826,126.660 257.611 C 129.510 260.516,130.253 261.383,130.521 262.109 C 130.664 262.499,131.057 262.924,131.394 263.053 C 131.730 263.182,133.438 264.663,135.190 266.344 C 136.942 268.025,138.965 269.882,139.687 270.472 C 140.409 271.061,141.540 271.981,142.200 272.515 C 142.860 273.050,143.985 273.787,144.700 274.154 C 145.415 274.521,146.000 274.992,146.000 275.203 C 146.000 275.413,146.449 275.697,146.998 275.835 C 147.547 275.973,148.762 276.695,149.698 277.439 C 150.634 278.183,151.552 278.794,151.737 278.796 C 151.922 278.798,152.513 279.145,153.049 279.567 C 153.585 279.989,154.751 280.457,155.640 280.607 C 156.528 280.757,157.355 281.138,157.476 281.455 C 157.724 282.101,160.100 283.200,161.249 283.200 C 161.662 283.200,162.000 283.358,162.000 283.551 C 162.000 283.992,163.580 284.601,166.315 285.213 C 167.478 285.474,169.098 286.003,169.915 286.390 C 170.732 286.777,172.646 287.215,174.169 287.365 C 175.918 287.536,177.101 287.859,177.380 288.241 C 178.975 290.421,214.741 290.577,217.664 288.416 C 218.345 287.912,219.711 287.534,221.464 287.363 C 222.969 287.216,224.830 286.831,225.600 286.507 C 226.370 286.183,228.080 285.663,229.400 285.352 C 232.255 284.680,234.000 284.016,234.000 283.603 C 234.000 283.437,234.732 283.185,235.628 283.042 C 236.577 282.890,237.625 282.383,238.142 281.825 C 238.629 281.299,239.698 280.743,240.518 280.589 C 241.337 280.435,242.439 279.970,242.967 279.555 C 243.494 279.140,244.078 278.798,244.263 278.796 C 244.448 278.794,245.390 278.164,246.356 277.396 C 247.322 276.628,248.347 276.000,248.634 276.000 C 248.920 276.000,249.390 275.668,249.677 275.262 C 249.965 274.856,250.678 274.271,251.263 273.962 C 253.878 272.580,262.975 263.497,264.984 260.262 C 265.415 259.568,265.977 258.869,266.232 258.709 C 266.487 258.550,266.921 257.875,267.196 257.209 C 267.472 256.544,267.865 256.000,268.071 256.000 C 268.276 256.000,268.894 255.055,269.445 253.900 C 269.995 252.745,270.786 251.170,271.203 250.400 C 271.620 249.630,271.970 248.589,271.981 248.087 C 271.991 247.586,272.271 247.071,272.601 246.944 C 272.932 246.817,273.491 245.698,273.843 244.457 C 274.194 243.215,274.727 241.811,275.027 241.336 C 275.744 240.197,276.392 236.090,276.403 232.600 C 276.408 231.060,276.673 228.720,276.992 227.400 C 277.736 224.319,277.742 220.440,277.008 217.400 C 276.689 216.080,276.419 213.650,276.406 212.000 C 276.377 208.085,275.718 203.604,275.055 202.821 C 274.766 202.479,274.311 201.179,274.043 199.931 C 273.775 198.683,273.298 197.447,272.981 197.184 C 272.665 196.922,272.210 195.963,271.971 195.053 C 271.423 192.970,268.847 187.532,268.156 187.000 C 267.870 186.780,267.443 186.150,267.208 185.600 C 266.474 183.886,263.070 179.155,261.500 177.665 C 260.895 177.091,260.400 176.458,260.400 176.258 C 260.400 175.721,257.477 172.801,256.939 172.800 C 256.686 172.800,256.290 172.260,256.060 171.600 C 255.830 170.940,255.455 170.400,255.228 170.400 C 255.000 170.400,253.389 168.960,251.648 167.200 C 249.907 165.440,248.355 164.000,248.200 164.000 C 248.045 164.000,246.666 162.920,245.136 161.600 C 243.606 160.280,242.101 159.200,241.791 159.200 C 241.482 159.200,241.049 158.865,240.829 158.455 C 240.610 158.045,239.884 157.483,239.215 157.206 C 238.547 156.929,238.000 156.570,238.000 156.407 C 238.000 156.089,233.070 152.800,232.593 152.800 C 232.435 152.800,231.691 152.260,230.939 151.600 C 230.187 150.940,229.388 150.400,229.162 150.400 C 228.937 150.400,228.864 150.220,229.000 150.000 C 229.162 149.738,241.463 149.600,264.601 149.600 L 299.955 149.600 301.078 148.635 L 302.200 147.670 302.316 135.316 L 302.432 122.962 301.516 121.930 C 301.012 121.362,300.207 120.696,299.726 120.449 C 298.711 119.927,190.150 119.905,184.400 120.425 M358.800 122.567 C 358.800 123.415,358.988 123.600,359.849 123.600 C 360.839 123.600,360.865 123.551,360.315 122.722 C 359.459 121.434,358.800 121.366,358.800 122.567 M299.520 122.880 C 300.186 123.546,300.201 145.522,299.536 146.981 L 299.072 148.000 262.743 148.000 L 226.415 148.000 226.156 149.034 C 225.816 150.388,226.380 150.873,233.078 154.977 C 234.135 155.625,235.739 156.750,236.641 157.477 C 237.544 158.205,238.489 158.800,238.741 158.800 C 238.994 158.800,239.200 158.976,239.200 159.192 C 239.200 159.407,239.920 159.951,240.800 160.400 C 241.680 160.849,242.400 161.360,242.400 161.536 C 242.400 161.712,243.615 162.764,245.100 163.874 C 246.585 164.985,248.715 166.772,249.834 167.847 C 250.953 168.921,253.068 170.913,254.534 172.273 C 256.000 173.633,257.200 174.925,257.200 175.144 C 257.200 175.363,257.617 175.870,258.126 176.271 C 258.635 176.672,259.397 177.540,259.819 178.200 C 260.241 178.860,260.916 179.643,261.318 179.940 C 261.721 180.238,262.224 180.868,262.435 181.340 C 262.822 182.203,264.240 184.307,265.441 185.800 C 265.796 186.240,266.326 187.154,266.620 187.832 C 266.913 188.509,267.434 189.296,267.777 189.581 C 268.120 189.865,268.400 190.305,268.400 190.559 C 268.400 190.813,268.934 192.096,269.587 193.410 C 270.241 194.725,270.781 196.028,270.787 196.308 C 270.794 196.587,271.340 197.827,272.000 199.064 C 272.660 200.301,273.200 201.878,273.200 202.569 C 273.200 203.260,273.478 204.810,273.819 206.013 C 275.966 213.602,276.103 232.119,274.051 237.310 C 273.810 237.921,273.427 239.582,273.200 241.002 C 272.956 242.530,272.382 244.180,271.794 245.047 C 271.247 245.853,270.800 246.822,270.800 247.202 C 270.800 247.582,270.465 248.321,270.055 248.846 C 269.645 249.371,269.173 250.250,269.006 250.800 C 268.839 251.350,267.869 253.030,266.851 254.533 C 265.833 256.036,264.714 257.702,264.364 258.235 C 259.523 265.616,247.450 275.689,238.700 279.647 C 237.655 280.120,236.800 280.641,236.800 280.805 C 236.800 281.167,235.221 281.805,232.800 282.420 C 231.810 282.672,230.820 283.024,230.600 283.202 C 230.380 283.379,229.030 283.746,227.600 284.016 C 226.170 284.286,224.435 284.845,223.743 285.259 C 223.034 285.684,221.032 286.190,219.143 286.422 C 217.305 286.647,214.630 287.140,213.200 287.516 C 209.857 288.396,185.532 288.543,183.232 287.697 C 182.480 287.421,179.982 286.915,177.682 286.573 C 175.381 286.232,173.114 285.700,172.644 285.392 C 172.175 285.084,170.622 284.559,169.195 284.224 C 167.768 283.889,165.653 283.251,164.496 282.807 C 163.338 282.363,162.104 282.000,161.753 282.000 C 161.403 282.000,160.586 281.555,159.940 281.011 C 159.293 280.466,158.059 279.831,157.199 279.600 C 156.338 279.368,155.520 278.994,155.380 278.768 C 155.241 278.542,154.198 277.917,153.063 277.379 C 150.706 276.261,148.924 275.110,143.346 271.101 C 140.929 269.365,138.268 267.184,136.725 265.675 C 135.482 264.461,130.788 259.670,128.746 257.534 C 128.166 256.927,126.816 255.240,125.746 253.785 C 124.676 252.329,123.219 250.388,122.509 249.469 C 121.799 248.551,120.935 247.172,120.590 246.405 C 120.244 245.638,119.640 244.648,119.247 244.205 C 118.147 242.967,116.000 238.903,116.000 238.060 C 116.000 237.646,115.633 236.841,115.184 236.271 C 114.736 235.700,114.035 234.281,113.627 233.117 C 113.219 231.953,112.608 230.476,112.267 229.836 C 111.927 229.196,111.535 227.936,111.397 227.036 C 111.259 226.136,110.808 224.320,110.395 223.000 C 109.983 221.680,109.437 219.160,109.183 217.400 C 108.929 215.640,108.451 213.570,108.122 212.800 C 106.643 209.345,106.665 188.568,108.150 185.696 C 108.500 185.020,109.049 182.839,109.371 180.848 C 109.693 178.857,110.135 176.896,110.352 176.490 C 110.570 176.083,111.036 174.509,111.387 172.992 C 111.739 171.474,112.268 169.955,112.562 169.616 C 112.856 169.277,113.400 168.069,113.771 166.931 C 114.141 165.793,114.695 164.653,115.001 164.399 C 115.308 164.144,115.774 163.275,116.038 162.468 C 116.301 161.661,116.850 160.571,117.258 160.046 C 117.666 159.521,118.000 158.908,118.000 158.684 C 118.000 158.459,118.495 157.631,119.100 156.844 C 119.705 156.057,120.380 155.120,120.600 154.762 C 121.789 152.829,123.633 150.320,125.499 148.095 C 126.655 146.717,127.600 145.412,127.600 145.195 C 127.600 144.978,127.818 144.800,128.085 144.800 C 128.351 144.800,129.476 143.848,130.585 142.685 C 133.209 139.931,137.060 136.686,138.700 135.845 C 139.415 135.479,140.000 134.998,140.000 134.776 C 140.000 134.553,140.765 134.015,141.700 133.580 C 143.476 132.753,145.477 131.598,147.236 130.385 C 147.806 129.992,149.066 129.440,150.036 129.158 C 151.006 128.876,152.160 128.421,152.600 128.146 C 153.040 127.871,154.689 127.379,156.264 127.052 C 157.839 126.726,159.670 126.177,160.334 125.834 C 160.999 125.490,163.336 124.940,165.530 124.611 C 167.723 124.281,170.031 123.807,170.659 123.556 C 173.461 122.438,298.422 121.782,299.520 122.880 M35.269 135.367 C 34.875 135.903,34.895 136.800,35.300 136.800 C 35.465 136.800,35.868 136.800,36.196 136.800 C 36.575 136.800,36.763 136.461,36.714 135.867 C 36.633 134.896,35.821 134.615,35.269 135.367 M36.172 135.555 C 36.293 135.750,36.138 136.120,35.828 136.377 C 35.318 136.800,35.227 136.420,35.569 135.300 C 35.636 135.081,35.965 135.220,36.172 135.555 M190.400 148.023 C 183.173 148.395,177.812 149.070,176.437 149.781 C 175.858 150.080,174.383 150.511,173.159 150.737 C 171.935 150.963,170.319 151.507,169.567 151.945 C 168.815 152.383,167.480 152.871,166.600 153.029 C 164.886 153.338,161.317 155.163,159.469 156.675 C 158.847 157.184,158.156 157.600,157.933 157.600 C 157.156 157.600,153.026 161.026,150.470 163.789 C 149.661 164.663,148.532 165.836,147.959 166.394 C 147.387 166.953,146.603 168.021,146.217 168.767 C 145.831 169.514,145.344 170.322,145.136 170.562 C 143.447 172.514,140.346 179.756,139.747 183.147 C 139.422 184.988,138.891 186.900,138.567 187.395 C 136.706 190.235,136.731 216.785,138.598 220.395 C 138.946 221.070,139.422 223.175,139.654 225.073 C 140.095 228.678,141.950 234.940,143.188 237.000 C 143.584 237.660,144.034 238.650,144.186 239.200 C 144.633 240.810,147.299 246.131,148.081 246.975 C 148.477 247.402,148.800 247.959,148.800 248.213 C 148.800 248.468,149.155 248.998,149.590 249.391 C 150.024 249.784,150.498 250.487,150.643 250.953 C 150.902 251.785,151.771 252.887,155.517 257.134 C 157.360 259.222,158.207 260.113,159.271 261.081 C 159.562 261.345,160.001 261.795,160.247 262.081 C 160.493 262.366,161.270 263.050,161.974 263.600 C 162.678 264.150,163.647 265.022,164.127 265.538 C 164.607 266.054,165.450 266.712,166.000 267.000 C 166.550 267.288,167.433 267.901,167.961 268.362 C 168.490 268.823,169.141 269.200,169.407 269.200 C 169.674 269.200,170.321 269.535,170.846 269.944 C 172.420 271.170,177.068 273.599,177.860 273.609 C 178.267 273.615,179.680 274.067,181.000 274.614 C 182.320 275.161,184.660 275.802,186.200 276.037 C 187.740 276.272,189.936 276.731,191.080 277.055 C 195.397 278.280,211.047 276.777,213.238 274.927 C 213.589 274.631,214.875 274.128,216.097 273.810 C 218.176 273.269,220.030 272.289,222.400 270.479 C 222.950 270.059,223.940 269.438,224.600 269.098 C 226.235 268.257,232.440 262.174,233.683 260.194 C 234.237 259.311,234.986 258.344,235.346 258.045 C 235.706 257.746,236.000 257.276,236.000 257.000 C 236.000 256.724,236.272 256.272,236.604 255.997 C 237.416 255.323,239.856 250.228,240.414 248.042 C 240.660 247.075,241.211 245.812,241.637 245.236 C 242.063 244.660,242.574 243.190,242.772 241.971 C 242.971 240.751,243.463 238.684,243.867 237.377 C 244.805 234.336,244.982 205.950,244.082 202.800 C 243.799 201.810,243.230 199.426,242.816 197.503 C 242.402 195.580,241.795 193.738,241.466 193.409 C 241.138 193.081,240.670 191.864,240.426 190.706 C 239.775 187.603,238.055 183.365,236.002 179.800 C 235.369 178.700,234.386 176.900,233.818 175.800 C 232.423 173.096,230.971 170.755,230.499 170.451 C 230.286 170.313,229.807 169.605,229.435 168.879 C 228.715 167.474,228.298 166.928,226.190 164.630 C 225.459 163.833,224.802 163.012,224.730 162.807 C 224.419 161.914,217.984 155.118,213.138 150.565 L 210.547 148.130 206.812 147.865 C 202.539 147.562,198.634 147.599,190.400 148.023 M210.873 150.700 C 211.452 151.305,212.167 152.030,212.462 152.311 C 212.758 152.592,213.232 153.042,213.516 153.311 C 216.583 156.218,219.600 159.248,219.600 159.422 C 219.600 159.541,220.500 160.538,221.600 161.638 C 222.700 162.738,223.600 163.796,223.600 163.990 C 223.600 164.184,224.028 164.678,224.550 165.089 C 225.073 165.501,225.882 166.586,226.349 167.501 C 226.816 168.416,227.889 169.891,228.734 170.779 C 229.579 171.667,230.505 173.105,230.792 173.976 C 231.079 174.846,231.548 175.648,231.835 175.758 C 232.121 175.868,232.573 176.684,232.839 177.572 C 233.105 178.460,233.655 179.488,234.061 179.856 C 234.468 180.223,234.800 180.741,234.800 181.006 C 234.800 181.271,235.234 182.128,235.764 182.910 C 236.295 183.691,236.939 185.342,237.196 186.579 C 237.452 187.815,237.985 189.136,238.380 189.513 C 238.790 189.906,239.289 191.313,239.545 192.800 C 239.805 194.308,240.266 195.601,240.644 195.879 C 241.099 196.213,241.407 197.417,241.670 199.879 C 241.876 201.815,242.394 205.516,242.822 208.101 C 243.798 213.999,243.892 224.948,243.007 229.769 C 242.681 231.546,242.168 235.187,241.867 237.860 C 241.450 241.569,241.127 242.966,240.505 243.757 C 240.057 244.327,239.571 245.430,239.425 246.209 C 239.279 246.988,238.718 248.274,238.180 249.068 C 237.641 249.862,237.200 250.904,237.200 251.385 C 237.200 251.865,236.665 252.965,236.011 253.829 C 235.357 254.693,234.817 255.594,234.811 255.830 C 234.805 256.067,234.350 256.683,233.800 257.200 C 233.250 257.717,232.800 258.318,232.800 258.536 C 232.800 258.755,232.354 259.398,231.809 259.967 C 225.927 266.100,221.113 270.180,219.286 270.581 C 218.599 270.732,217.624 271.177,217.119 271.569 C 216.613 271.962,215.210 272.510,214.000 272.787 C 212.790 273.064,211.350 273.577,210.800 273.927 C 207.633 275.946,187.533 275.944,184.400 273.924 C 183.850 273.570,182.423 273.077,181.230 272.829 C 180.036 272.581,178.506 272.045,177.830 271.638 C 177.153 271.231,175.916 270.776,175.079 270.627 C 174.242 270.478,173.461 270.104,173.343 269.796 C 173.225 269.489,172.335 268.852,171.364 268.383 C 170.394 267.913,169.600 267.377,169.600 267.191 C 169.600 267.006,169.195 266.727,168.700 266.573 C 168.205 266.418,167.231 265.821,166.535 265.246 C 163.331 262.596,161.840 261.318,160.767 260.300 C 160.129 259.695,159.438 259.200,159.231 259.200 C 159.023 259.200,158.752 258.880,158.628 258.489 C 158.504 258.098,157.547 256.876,156.501 255.774 C 154.461 253.624,151.166 249.030,149.697 246.286 C 149.200 245.359,148.540 244.411,148.230 244.180 C 147.920 243.949,147.537 243.070,147.378 242.225 C 147.220 241.381,146.777 240.377,146.393 239.993 C 146.010 239.610,145.395 238.388,145.026 237.279 C 144.658 236.169,144.116 235.062,143.822 234.819 C 143.529 234.575,143.073 232.904,142.810 231.105 C 142.547 229.307,142.011 227.197,141.619 226.418 C 141.218 225.621,140.780 223.520,140.618 221.624 C 140.461 219.767,139.942 217.247,139.466 216.024 C 138.128 212.589,138.133 192.549,139.472 190.400 C 140.043 189.484,140.441 187.994,140.625 186.091 C 140.779 184.491,141.073 183.079,141.277 182.952 C 141.781 182.641,142.384 180.985,142.810 178.746 C 143.003 177.726,143.575 176.262,144.081 175.491 C 145.000 174.091,146.071 172.346,147.200 170.411 C 149.368 166.695,155.487 160.751,159.400 158.563 C 160.060 158.194,160.741 157.651,160.913 157.357 C 161.086 157.063,162.136 156.553,163.248 156.223 C 164.359 155.893,165.838 155.281,166.534 154.863 C 167.231 154.445,168.497 153.998,169.350 153.869 C 170.202 153.740,171.227 153.338,171.627 152.975 C 172.028 152.613,173.851 152.060,175.678 151.747 C 177.505 151.435,179.630 150.968,180.400 150.711 C 182.552 149.992,187.214 149.730,199.011 149.662 L 209.822 149.600 210.873 150.700 M27.701 162.600 C 27.705 163.480,27.787 163.793,27.883 163.295 C 27.979 162.798,27.975 162.078,27.875 161.695 C 27.775 161.313,27.696 161.720,27.701 162.600 M27.701 246.600 C 27.705 247.480,27.787 247.793,27.883 247.295 C 27.979 246.798,27.975 246.078,27.875 245.695 C 27.775 245.313,27.696 245.720,27.701 246.600 M39.600 281.520 C 39.600 281.934,40.466 282.800,40.880 282.800 C 41.056 282.800,41.200 282.440,41.200 282.000 C 41.200 281.467,40.933 281.200,40.400 281.200 C 39.960 281.200,39.600 281.344,39.600 281.520 M358.800 283.849 C 358.800 284.380,358.909 284.408,359.400 284.000 C 359.730 283.726,360.000 283.434,360.000 283.351 C 360.000 283.268,359.730 283.200,359.400 283.200 C 359.070 283.200,358.800 283.492,358.800 283.849 M55.692 308.075 C 55.939 308.817,56.800 308.940,56.800 308.233 C 56.800 307.885,56.515 307.600,56.167 307.600 C 55.818 307.600,55.605 307.814,55.692 308.075 M344.500 310.623 C 343.911 311.263,343.862 311.600,344.357 311.600 C 344.698 311.600,345.337 310.396,345.109 310.183 C 345.049 310.127,344.775 310.325,344.500 310.623 M332.267 323.467 C 331.728 324.006,332.024 324.713,332.883 324.937 C 333.920 325.209,333.974 325.172,334.190 324.054 C 334.353 323.206,332.955 322.779,332.267 323.467 M321.902 334.641 C 322.179 334.766,322.322 335.003,322.220 335.167 C 322.118 335.332,322.302 335.467,322.629 335.467 C 323.486 335.467,323.078 334.617,322.167 334.507 C 321.745 334.456,321.626 334.516,321.902 334.641 M292.400 357.224 C 292.400 357.457,292.569 357.543,292.775 357.415 C 292.982 357.288,293.298 357.446,293.478 357.767 C 293.756 358.264,293.953 358.237,294.802 357.584 L 295.800 356.818 294.900 356.809 C 294.405 356.804,294.000 357.016,294.000 357.280 C 294.000 357.653,293.893 357.653,293.520 357.280 C 292.927 356.687,292.400 356.660,292.400 357.224 " stroke="none" fill="#68bce1" fill-rule="evenodd"></path></g></svg>